<svg width="512" height="512" version="1.1" viewBox="0 0 135.47 135.47" xmlns="http://www.w3.org/2000/svg"><g stroke-miterlimit="10"><rect x="15.875" y="37.042" width="103.19" height="63.5" fill="#fff" stroke-width="0"/><path d="m15.876 0c-8.7947 0-15.876 7.0812-15.876 15.876v103.71c0 8.7946 7.0812 15.876 15.876 15.876h103.71c8.7946 0 15.876-7.0812 15.876-15.876v-103.71c0-8.7946-7.0812-15.876-15.876-15.876zm27.584 37.559h32.85c19.162 0 23.268 9.4194 9.5808 28.259l-2.2808 3.1401c-2.2812 3.1399-7.2991 6.2801-10.037 6.2801h-54.75c-2.7375 0-2.7384-3.7681-0.91344-6.2801l20.531-28.259c1.3687-1.8839 3.3768-3.14 5.0192-3.14zm15.235 4.4009c-0.03253 1.51e-4 -0.06441 0.0012-0.09713 0.0037-0.93296 0.07169-1.8753 1.0859-1.401 2.2995l3.2222 8.2359c-0.66537-0.01358-1.1525 0-1.1525 0h-19.589c-0.79655 0-1.4477 0.72245-1.4477 1.6065 0 0.88405 0.65108 1.599 1.4477 1.599h18.19l-10.707 6.9843c-1.6685 1.1632-0.19281 3.8325 1.4757 2.6693l14.211-9.5135s0.33317-0.22557 0.63511-0.44458c0.25234-0.18296 0.50809-0.41096 0.50809-0.41096 0.21912-0.24486 0.31264-0.95578 0.07472-1.5429l-0.0058-0.01863c-0.0098-0.02367-0.01844-0.04638-0.03-0.06912l-4.1226-10.496c-0.24949-0.63829-0.72278-0.90447-1.2123-0.90223zm17.96 0.23163a1.652 1.8217 32.132 0 0-1.5131 0.94893l-12.887 22.003a1.652 1.8217 32.132 0 0 2.8617 1.6513l12.889-22.005a1.652 1.8217 32.132 0 0-0.51182-2.3966 1.652 1.8217 32.132 0 0-0.83872-0.20174zm20.193 20.135h19.793c2.9001 0 3.224 2.7993 0.72665 6.2782l-18.031 25.119c-2.4973 3.479-6.8432 6.2801-9.7433 6.2801h-70.671c-2.9001 0-3.2258-2.8011-0.7285-6.2801l4.5093-6.2782h53.588c2.7891 0 7.9029-3.1402 10.227-6.2801l2.3237-3.14c4.6486-6.2798 7.2831-11.512 8.0061-15.698z" fill="#0d7af6" stroke-width=".39999"/></g></svg>
