<svg width="500" height="500" viewBox="0 0 500 500" fill="none" xmlns="http://www.w3.org/2000/svg">
<path d="M440.025 358.484C447.28 299.059 367.677 240.478 262.226 227.638C156.774 214.799 65.4072 252.563 58.1514 311.988C50.8956 371.413 130.499 429.994 235.95 442.834C341.402 455.674 432.769 417.909 440.025 358.484Z" fill="#C5F1DF"/>
<path d="M471.386 255.198C478.687 195.405 384.961 134.801 262.045 119.835C139.128 104.869 33.5662 141.208 26.2655 201.001C18.9648 260.794 112.69 321.398 235.607 336.364C358.523 351.33 464.085 314.991 471.386 255.198Z" fill="#34BDCD"/>
<path d="M402.535 128.95C407.358 89.4472 343.954 49.2277 260.918 39.1174C177.882 29.0071 106.658 52.8346 101.835 92.3377C97.0116 131.841 160.416 172.06 243.452 182.171C326.488 192.281 397.712 168.453 402.535 128.95Z" fill="#303FE0"/>
<path d="M72.9471 73.5243C45.3624 101.195 24.6409 134.951 12.4618 172.078C0.282693 209.207 -3.03175 248.672 2.79362 287.315L1.02551 289.746L3.51029 291.569L3.51448 291.565C12.8353 346.849 40.4692 397.399 81.9791 435.089C123.488 472.78 176.449 495.418 232.376 499.375C288.299 503.336 343.922 488.378 390.325 456.908C436.724 425.44 471.197 379.288 488.213 325.864C505.225 272.436 503.787 214.847 484.129 162.341C464.474 109.84 427.739 65.4625 379.829 36.3479C331.917 7.23542 275.616 -4.92583 219.958 1.81345C164.304 8.55691 112.53 33.8158 72.9628 73.5254L72.9471 73.5243ZM382.279 117.718C347.118 152.881 299.434 172.633 249.71 172.637C199.986 172.633 152.3 152.88 117.142 117.718C152.301 82.555 199.99 62.7997 249.71 62.7997C299.429 62.7997 347.119 82.5561 382.279 117.718ZM117.137 382.881C105.662 371.421 95.7296 358.512 87.5806 344.49C140.171 368.885 197.883 380.177 255.782 377.396C313.685 374.613 370.053 357.848 420.055 328.527C394.451 384.289 343.182 423.994 282.79 434.829C222.397 445.665 160.529 426.264 117.135 382.883L117.137 382.881ZM436.857 239.914L426.254 248.53L426.249 248.534C375.366 290.143 312.091 313.656 246.381 315.366C180.674 317.081 116.259 296.889 63.2842 257.976L62.8416 257.533L62.8447 257.538C61.5087 227.177 67.5538 196.939 80.4621 169.426C126.607 211.882 187.016 235.442 249.709 235.439C312.401 235.434 372.815 211.879 418.955 169.426C429.458 191.528 435.542 215.478 436.853 239.916L436.857 239.914Z" fill="#151720"/>
</svg>
