<svg width="256" height="256" viewBox="0 0 256 256" fill="none" xmlns="http://www.w3.org/2000/svg">
<path d="M60.5373 124.477C61.9607 124.477 61.9607 122.299 60.5373 122.299C59.1139 122.299 59.1139 124.477 60.5373 124.477Z" fill="#303744"/>
<path d="M118.231 153.302C118.232 152.132 117.859 150.992 117.164 150.043C116.47 149.094 115.489 148.385 114.362 148.017C113.124 147.612 111.856 147.202 110.397 146.709C107.731 145.8 104.784 144.782 102.153 143.78C96.2206 141.439 90.5168 138.57 85.1122 135.21C80.6489 132.478 76.339 129.511 72.2014 126.32C67.9062 123.03 63.4857 119.553 63.4857 115.197C63.4857 113.305 56.6343 116.13 57.4713 117.824C62.4332 127.836 70.5425 136.593 79.5239 143.434C85.2071 147.706 91.4119 151.259 97.9929 154.009C100.885 155.302 103.847 156.44 106.864 157.417C108.057 157.767 109.5 158.207 111.029 158.637C111.868 158.871 112.751 158.911 113.608 158.752C114.465 158.594 115.273 158.241 115.969 157.723C116.664 157.204 117.228 156.534 117.617 155.764C118.005 154.995 118.207 154.147 118.206 153.288L118.231 153.302Z" fill="#303744"/>
<path d="M112.615 160.104C111.971 160.103 111.33 160.013 110.71 159.838C109.553 159.512 108.445 159.181 107.458 158.889L106.531 158.618C103.646 157.693 100.815 156.613 98.0504 155.382L97.5241 155.16C90.8471 152.368 84.5515 148.762 78.7844 144.427C68.8157 136.865 61.0622 127.861 56.366 118.383C56.1755 118.003 55.8648 116.985 56.9474 115.82C58.2304 114.442 61.7889 112.856 63.5732 113.518C63.9259 113.643 64.2301 113.873 64.4432 114.177C64.6562 114.481 64.7673 114.843 64.761 115.212C64.761 119.06 69.1364 122.408 72.9906 125.362C77.0903 128.521 81.3618 131.458 85.7861 134.159C91.1184 137.483 96.7486 140.318 102.606 142.63C105.247 143.617 108.235 144.669 110.811 145.544C111.923 145.924 112.941 146.255 113.913 146.571L114.76 146.848C116.137 147.296 117.336 148.161 118.185 149.321C119.033 150.48 119.489 151.874 119.486 153.303C119.485 155.101 118.762 156.826 117.474 158.1C116.187 159.375 114.44 160.095 112.615 160.104ZM58.7367 117.538C63.2775 126.592 70.7352 135.206 80.3131 142.471C85.9138 146.679 92.0275 150.179 98.5114 152.888L99.0427 153.11C101.72 154.302 104.46 155.349 107.252 156.247L108.179 156.523C109.182 156.815 110.254 157.141 111.397 157.462C112.049 157.644 112.735 157.674 113.401 157.55C114.067 157.427 114.695 157.153 115.236 156.75C115.776 156.347 116.215 155.826 116.517 155.228C116.818 154.63 116.975 153.971 116.975 153.303C116.977 152.393 116.687 151.506 116.147 150.769C115.607 150.031 114.845 149.48 113.968 149.194L113.126 148.917C112.124 148.596 111.121 148.26 109.989 147.88C107.393 146.996 104.375 145.954 101.699 144.916C95.6985 142.55 89.9306 139.647 84.468 136.243C79.9622 133.496 75.612 130.508 71.4369 127.293C67.302 124.127 62.6309 120.551 62.26 115.805C61.2326 115.948 59.2328 116.896 58.7367 117.538Z" fill="#303744"/>
<path d="M138.347 153.246C138.346 152.076 138.72 150.935 139.414 149.987C140.109 149.038 141.09 148.329 142.217 147.961C143.455 147.556 144.723 147.146 146.181 146.652C148.847 145.743 151.794 144.726 154.426 143.723C160.358 141.382 166.062 138.514 171.466 135.154C175.93 132.422 180.24 129.454 184.377 126.263C188.672 122.974 193.093 119.497 193.093 115.14C193.093 113.249 199.944 116.074 199.107 117.768C194.145 127.78 186.036 136.537 177.055 143.378C171.371 147.65 165.167 151.203 158.586 153.952C155.693 155.246 152.732 156.384 149.715 157.36C148.522 157.711 147.078 158.151 145.55 158.58C144.71 158.819 143.826 158.863 142.967 158.707C142.108 158.551 141.297 158.201 140.598 157.684C139.9 157.166 139.333 156.496 138.942 155.726C138.552 154.956 138.348 154.107 138.347 153.246Z" fill="#303744"/>
<path d="M143.944 160.029C142.12 160.02 140.374 159.3 139.087 158.027C137.799 156.754 137.075 155.03 137.073 153.233C137.069 151.802 137.524 150.408 138.373 149.247C139.222 148.087 140.421 147.221 141.799 146.772L142.581 146.52C143.583 146.194 144.611 145.858 145.748 145.473C148.325 144.594 151.312 143.562 153.953 142.559C159.811 140.248 165.441 137.413 170.773 134.088C175.197 131.388 179.469 128.451 183.569 125.292C187.428 122.328 191.798 118.989 191.798 115.142C191.792 114.772 191.903 114.41 192.116 114.107C192.329 113.803 192.633 113.572 192.986 113.448C194.77 112.761 198.329 114.371 199.612 115.749C200.704 116.915 200.379 117.932 200.193 118.313C195.482 127.801 187.738 136.815 177.77 144.367C172.002 148.698 165.707 152.301 159.03 155.09L158.484 155.322C155.726 156.548 152.901 157.625 150.024 158.547L149.106 158.819C148.104 159.115 147.006 159.441 145.844 159.767C145.226 159.941 144.587 160.029 143.944 160.029ZM194.279 115.759C193.908 120.506 189.242 124.082 185.102 127.248C180.927 130.462 176.577 133.45 172.071 136.197C166.608 139.601 160.841 142.505 154.84 144.871C152.164 145.888 149.147 146.93 146.55 147.834C145.403 148.224 144.355 148.565 143.353 148.891L142.576 149.143C141.7 149.429 140.937 149.98 140.397 150.718C139.857 151.456 139.567 152.343 139.569 153.252C139.569 153.92 139.726 154.579 140.028 155.177C140.329 155.775 140.768 156.296 141.308 156.699C141.849 157.102 142.477 157.376 143.143 157.5C143.809 157.623 144.495 157.593 145.147 157.411C146.295 157.09 147.392 156.764 148.375 156.473L149.297 156.201C152.082 155.304 154.816 154.259 157.486 153.07L158.033 152.838C164.517 150.128 170.63 146.629 176.231 142.421C185.814 135.155 193.272 126.536 197.808 117.483C197.326 116.831 195.327 115.887 194.279 115.759Z" fill="#303744"/>
<path d="M138.716 215.938C136.842 215.827 135.086 215.002 133.819 213.637C132.939 212.516 132.396 211.174 132.25 209.764C132.192 209.316 132.26 208.861 132.447 208.448C132.633 208.035 132.931 207.681 133.308 207.423C134.842 206.383 136 204.888 136.614 203.155C137.228 201.422 137.266 199.541 136.722 197.786C136.179 196.03 135.082 194.491 133.591 193.391C132.1 192.291 130.292 191.688 128.43 191.669C126.567 191.65 124.747 192.216 123.233 193.285C121.719 194.354 120.59 195.87 120.009 197.614C119.428 199.358 119.427 201.239 120.004 202.984C120.581 204.729 121.707 206.248 123.219 207.32C123.578 207.58 123.86 207.93 124.037 208.334C124.213 208.737 124.277 209.18 124.221 209.616C124.095 211.079 123.543 212.475 122.632 213.637C121.366 215.002 119.609 215.827 117.736 215.938C115.195 215.909 111.22 214.56 107.351 213.375C111.361 217.074 120.773 221.204 125.138 221.935L126.532 222.977C126.572 222.69 126.602 222.404 126.637 222.117C127.687 222.165 128.739 222.165 129.789 222.117C129.825 222.404 129.855 222.69 129.895 222.977L131.288 221.935C135.658 221.199 145.056 217.069 149.075 213.375C145.216 214.56 141.257 215.904 138.716 215.938Z" fill="#303744"/>
<path d="M138.717 213.48C137.088 213.371 135.209 212.201 134.948 210.516C134.698 208.926 136.602 208.047 137.514 206.773C138.662 205.185 139.365 203.328 139.553 201.387C139.741 199.447 139.407 197.492 138.585 195.719C137.762 193.946 136.481 192.418 134.869 191.288C133.257 190.158 131.371 189.467 129.402 189.284C127.433 189.1 125.449 189.431 123.651 190.243C121.853 191.055 120.303 192.32 119.158 193.909C118.014 195.499 117.314 197.357 117.129 199.298C116.945 201.239 117.282 203.193 118.108 204.965C118.865 206.595 120.013 207.563 121.155 208.877C122.398 210.299 120.885 212.3 119.421 213.016C116.269 214.562 111.076 211.959 108.034 211.04C105.688 210.319 103.734 213.51 105.598 215.169C108.42 217.668 111.778 219.526 115.201 221.096C116.865 221.862 118.559 222.578 120.288 223.181C122.017 223.783 123.797 224.035 125.3 225.156C126.999 226.431 128.874 224.628 129.069 223.023L129.174 222.163L126.668 224.633C127.721 224.682 128.768 224.682 129.821 224.633L127.315 222.163L127.42 223.023C127.621 224.628 129.49 226.431 131.189 225.156C132.613 224.089 134.196 223.867 135.89 223.284C137.72 222.652 139.519 221.901 141.278 221.096C144.701 219.526 148.059 217.639 150.881 215.169C152.741 213.519 150.791 210.319 148.445 211.04C145.323 212.003 142.025 213.356 138.727 213.51C135.52 213.668 135.499 218.607 138.727 218.449C142.526 218.261 146.18 216.903 149.753 215.796L147.318 211.667C144.661 214.018 141.303 215.688 138.076 217.1C135.018 218.454 131.284 218.883 128.643 220.864L132.412 222.998L132.337 222.129C132.182 220.854 131.335 219.585 129.831 219.659C128.778 219.708 127.731 219.708 126.678 219.659C125.21 219.59 124.328 220.859 124.173 222.129L124.067 222.988L127.836 220.854C125.195 218.879 121.461 218.444 118.404 217.091C115.166 215.658 111.818 213.989 109.162 211.657L106.726 215.787C110.33 216.898 114.529 218.72 118.394 218.399C120.022 218.25 121.579 217.671 122.902 216.724C124.225 215.776 125.264 214.496 125.912 213.016C126.523 211.613 126.979 209.865 126.648 208.333C126.262 206.54 125.05 205.864 123.877 204.659C123.284 204.053 122.823 203.335 122.52 202.549C122.217 201.763 122.08 200.924 122.115 200.084C122.151 199.243 122.359 198.419 122.727 197.66C123.096 196.901 123.616 196.224 124.258 195.669C130.272 190.572 138.291 199.354 132.648 204.827C131.42 206.012 130.237 206.669 129.856 208.462C129.525 210.003 129.986 211.672 130.608 213.08C132.036 216.33 135.199 218.202 138.732 218.439C141.94 218.632 141.925 213.692 138.717 213.48Z" fill="#303744"/>
<path d="M210.108 172.385C208.932 163.794 206.835 155.351 203.853 147.195C202.45 143.283 201.011 139.367 200.094 135.307C199.227 131.246 199.088 127.067 199.683 122.959C200.686 115.002 201.823 107.153 202.094 99.1073C202.364 91.2863 202.029 83.4564 201.092 75.6857C198.936 57.9836 193.624 45.685 184.151 30.413C183.755 29.7733 183.199 29.2447 182.536 28.8779C181.873 28.5111 181.125 28.3184 180.365 28.3184C179.604 28.3184 178.857 28.5111 178.194 28.8779C177.53 29.2447 176.974 29.7733 176.578 30.413C167.642 44.0452 160.189 53.3506 152.822 67.8422C150.722 66.9047 148.572 66.0803 146.381 65.3726C131.847 60.6903 116.976 62.3005 103.78 68.2621C96.362 53.6618 88.8641 44.2477 79.8626 30.5168C79.4666 29.877 78.9104 29.3484 78.2473 28.9816C77.5842 28.6148 76.8365 28.4221 76.0761 28.4221C75.3157 28.4221 74.5681 28.6148 73.905 28.9816C73.2419 29.3484 72.6856 29.877 72.2896 30.5168C55.4445 57.6823 51.6755 85.7962 55.9005 116.883C56.4719 121.087 57.2939 125.28 57.1585 129.552C57.0332 133.598 55.9356 137.529 54.6776 141.357C52.0063 149.502 48.974 157.38 47.3903 165.831C45.9368 173.59 43.6814 187.958 49.5203 194.478C52.0263 197.264 55.5948 199.047 58.9228 200.578C62.9323 202.425 66.9569 204.225 70.9965 205.977C89.0395 213.805 107.488 221.97 126.318 227.6C127.411 227.829 128.538 227.856 129.641 227.679C146.752 222.562 164.028 214.837 180.477 207.982C184.452 206.327 188.391 204.603 192.321 202.845C195.749 201.314 199.337 199.882 202.52 197.906C205.703 195.93 208.509 193.243 209.842 189.643C211.326 185.686 210.639 176.391 210.108 172.385ZM180.182 41.0422C191.825 63.1747 195.017 83.8501 192.712 108.591C185.194 93.9607 174.558 80.5112 160.535 71.9072C166.755 59.7222 173.02 52.6591 180.182 41.0422ZM64.05 76.6043C65.6738 62.5474 69.6934 53.6915 76.3092 41.1459C83.5364 52.8666 89.8414 60.0432 96.1014 72.3418C91.2838 75.3066 86.8288 78.8085 82.8247 82.7783C75.0111 90.5131 68.8314 99.621 63.9648 109.371C62.9624 98.4701 62.7819 87.5792 64.05 76.5945V76.6043ZM200.5 188.492C198.385 190.838 195.022 192.088 192.225 193.391C189.529 194.646 186.833 195.891 184.096 197.061C166.369 204.668 148.13 212.98 129.576 218.601C128.596 218.898 127.549 218.898 126.569 218.601C111.167 213.924 95.9961 207.053 81.1407 200.899C73.9285 197.911 66.4206 195.007 59.5893 191.218C57.1686 189.875 54.8631 188.255 54.5423 185.355C54.1263 181.547 55.0936 172.306 55.7803 168.562C57.2488 160.546 59.9352 153.009 62.5815 145.348C64.8018 138.927 65.9495 132.709 65.734 126.159C65.6854 124.792 65.9172 123.43 66.4156 122.154C74.4046 101.71 89.0796 81.0792 110.716 73.2111C130.874 65.8814 151.99 72.1591 167.256 86.3938C177.22 95.6844 184.632 107.464 189.81 119.931L189.87 120.074C190.558 121.615 190.839 123.302 190.687 124.979C190.622 125.705 190.572 126.431 190.546 127.157C190.449 131.259 190.955 135.353 192.05 139.312C194.12 147.215 197.513 154.658 199.438 162.601C200.383 166.435 201.093 170.323 201.563 174.242C201.919 177.25 202.776 185.978 200.5 188.492Z" fill="#303744"/>
<path d="M128.277 228.998C127.506 229.013 126.736 228.929 125.987 228.746C108.049 223.382 90.4021 215.702 73.2913 208.278L70.5197 207.073C66.3547 205.265 62.2801 203.443 58.4209 201.64C54.9125 200.02 51.2588 198.183 48.6075 195.219C42.6934 188.625 44.3924 175.127 46.1867 165.544C47.4447 158.822 49.6399 152.367 51.76 146.129C52.3464 144.4 52.9378 142.671 53.5091 140.913C54.6919 137.307 55.8046 133.425 55.9299 129.449C56.0352 126.174 55.539 122.825 55.0578 119.571C54.9275 118.701 54.8022 117.832 54.6819 116.968C50.081 83.1193 55.3435 55.4154 71.2214 29.7909C71.7133 28.9841 72.406 28.3144 73.234 27.845C74.0619 27.3757 74.9976 27.1224 75.9526 27.1089C76.941 27.0979 77.9158 27.3364 78.7843 27.8015C79.6528 28.2666 80.3861 28.9429 80.9145 29.7662C83.4806 33.678 85.9264 37.2392 88.282 40.6818C93.8904 48.8562 99.193 56.5909 104.36 66.578C118.364 60.5373 133.004 59.6631 146.761 64.1084C148.586 64.6961 150.42 65.3827 152.234 66.1532C157.337 56.2748 162.574 48.6734 168.112 40.6176C170.488 37.1602 172.939 33.5941 175.52 29.6575C176.05 28.8356 176.783 28.1603 177.651 27.6953C178.52 27.2304 179.494 26.9912 180.482 27.0002C181.437 27.0137 182.373 27.2671 183.2 27.7364C184.028 28.2057 184.721 28.8754 185.213 29.6822C194.084 43.9762 200.038 56.6206 202.329 75.4488C203.269 83.2822 203.604 91.1746 203.331 99.0581C203.096 106.126 202.183 113.184 201.301 120.005C201.171 121.009 201.042 122.015 200.915 123.023C200.343 126.983 200.475 131.011 201.306 134.926C202.25 138.698 203.421 142.411 204.815 146.045L205.04 146.672C208.056 154.916 210.173 163.453 211.355 172.138C211.355 172.262 212.989 184.748 211.055 189.954C209.777 193.411 207.14 196.375 203.226 198.845C200.51 200.448 197.679 201.855 194.756 203.053L192.876 203.883C188.28 205.937 184.506 207.572 181.003 209.029C178.173 210.208 175.321 211.407 172.448 212.625C158.6 218.473 144.275 224.518 130.042 228.771C129.466 228.92 128.873 228.996 128.277 228.998ZM76.0529 29.6378H76.0128C75.4827 29.6414 74.9625 29.7796 74.5024 30.0392C74.0424 30.2987 73.658 30.6708 73.3865 31.1195C57.8044 56.2501 52.6471 83.4404 57.1578 116.696C57.2731 117.555 57.4034 118.415 57.5287 119.274C58.0299 122.618 58.5311 126.075 58.4259 129.567C58.2906 133.85 57.1278 137.939 55.8848 141.718C55.3084 143.471 54.717 145.215 54.1256 146.958C51.9354 153.379 49.8655 159.489 48.6375 166.038C47.6351 171.264 44.6781 187.173 50.4719 193.629C52.8024 196.227 56.1955 197.921 59.4683 199.432C63.3125 201.205 67.3672 203.018 71.497 204.821L74.2686 206.026C91.3092 213.435 108.886 221.071 126.679 226.39C127.538 226.55 128.417 226.577 129.285 226.469C143.378 222.256 157.637 216.235 171.425 210.417C174.302 209.202 177.157 208.002 179.991 206.816C183.474 205.364 187.228 203.739 191.804 201.694L193.703 200.86C196.513 199.708 199.235 198.358 201.848 196.819C205.356 194.641 207.561 192.142 208.664 189.179C209.937 185.756 209.441 177.147 208.829 172.529C207.669 164.015 205.593 155.647 202.635 147.566L202.409 146.939C200.985 143.211 199.79 139.403 198.83 135.534C197.935 131.342 197.79 127.028 198.399 122.786C198.526 121.778 198.655 120.771 198.785 119.763C199.657 112.996 200.565 106.003 200.79 99.0482C201.064 91.2972 200.741 83.5368 199.823 75.834C197.588 57.4503 191.749 45.0727 183.058 31.0603C182.786 30.6116 182.402 30.2395 181.942 29.9799C181.482 29.7203 180.962 29.5821 180.432 29.5785C179.868 29.5756 179.312 29.7142 178.818 29.9812C178.323 30.2482 177.906 30.6349 177.605 31.1047C175.009 35.0561 172.548 38.6469 170.167 42.1092C164.238 50.738 159.111 58.1912 153.918 68.4154L153.377 69.4773L152.28 68.9834C150.22 68.0633 148.112 67.2538 145.964 66.5582C132.432 62.1969 118.038 63.1798 104.285 69.3933L103.183 69.8872L102.641 68.8204C97.3787 58.4481 92.1913 50.901 86.187 42.1487C83.8214 38.6913 81.3705 35.1252 78.7894 31.1936C78.5004 30.7305 78.0989 30.3458 77.6211 30.0741C77.1433 29.8025 76.6043 29.6525 76.0529 29.6378ZM128.087 220.053C127.452 220.054 126.82 219.961 126.212 219.777C113.863 216.028 101.579 210.842 89.7004 205.824C86.6932 204.544 83.6861 203.275 80.6789 202.03L77.4161 200.687C71.2464 198.158 64.8863 195.54 58.9972 192.29C56.2707 190.779 53.6946 188.907 53.3187 185.484C52.8827 181.478 53.88 172.114 54.5667 168.345C55.96 160.749 58.476 153.448 60.9118 146.39L61.413 144.909C63.7185 138.206 64.7008 132.244 64.5004 126.14C64.4443 124.608 64.7034 123.081 65.2621 121.65C69.6326 110.473 75.5918 100.258 82.5083 92.1037C90.6527 82.497 100.005 75.7253 110.304 71.9814C129.851 64.869 151.483 69.8971 168.137 85.4259C177.625 94.2769 185.308 105.701 190.972 119.393L191.022 119.506C191.794 121.238 192.109 123.134 191.939 125.018C191.874 125.769 191.829 126.466 191.799 127.132C191.71 131.115 192.206 135.09 193.272 138.932C194.24 142.617 195.528 146.292 196.781 149.848C198.189 153.858 199.642 158.002 200.67 162.24C201.628 166.122 202.346 170.057 202.82 174.025C203.752 182.101 203.296 187.228 201.457 189.267C199.497 191.446 196.635 192.725 194.114 193.861C193.663 194.063 193.217 194.266 192.786 194.463C190.195 195.669 187.413 196.933 184.622 198.153C182.049 199.256 179.468 200.371 176.878 201.497C161.642 208.13 145.869 214.951 129.961 219.797C129.353 219.974 128.721 220.06 128.087 220.053ZM128.187 71.3245C122.371 71.3236 116.601 72.3421 111.146 74.3325C101.263 77.9282 92.2866 84.4628 84.4278 93.7188C77.7068 101.676 71.8679 111.628 67.6027 122.559C67.1606 123.685 66.956 124.888 67.0013 126.095C67.2118 132.491 66.1894 138.725 63.7836 145.719L63.2824 147.2C60.7765 154.496 58.3908 161.381 57.0325 168.799C56.381 172.346 55.3986 181.508 55.8096 185.237C56.0502 187.43 57.6741 188.744 60.2251 190.176C65.9638 193.357 72.2538 195.945 78.3784 198.449L81.6462 199.793C84.6534 201.038 87.6605 202.312 90.6978 203.591C102.516 208.58 114.755 213.741 126.959 217.455C127.7 217.681 128.493 217.681 129.235 217.455C145.027 212.669 160.705 205.883 175.846 199.314C178.442 198.191 181.026 197.075 183.599 195.965C186.361 194.78 189.112 193.495 191.693 192.31C192.135 192.103 192.591 191.9 193.057 191.693C195.468 190.611 197.958 189.49 199.572 187.707C200.575 186.62 201.261 182.55 200.319 174.371C199.858 170.501 199.158 166.663 198.224 162.877C197.222 158.758 195.793 154.668 194.405 150.717C193.142 147.116 191.834 143.392 190.841 139.614C189.706 135.541 189.184 131.325 189.293 127.103C189.318 126.392 189.368 125.661 189.438 124.865C189.57 123.396 189.323 121.918 188.721 120.568L188.646 120.395C183.133 107.03 175.615 95.8871 166.408 87.3028C155.217 76.8169 141.694 71.3245 128.187 71.3245ZM63.1171 113.856L62.7161 109.475C61.6085 97.3788 61.6385 86.5767 62.8063 76.4514C64.5054 61.7326 69.0161 52.2938 75.1958 40.5633L76.1982 38.6172L77.356 40.4941C80.0975 44.9394 82.7138 48.7327 85.2398 52.4074C89.3797 58.4184 93.294 64.0985 97.1983 71.7789L97.6995 72.7668L96.7322 73.3595C92.0034 76.2749 87.6309 79.7171 83.7011 83.6182C76.4689 90.7751 70.2039 99.6113 65.0767 109.885L63.1171 113.856ZM65.2922 76.728C64.2696 86.0992 64.1236 95.5432 64.8562 104.941C69.3877 96.4855 75.1395 88.7227 81.9319 81.8944C85.733 78.1264 89.9337 74.7716 94.4617 71.8876C90.798 64.8493 87.0942 59.4705 83.1849 53.7904C80.9997 50.6145 78.7493 47.3695 76.3987 43.6404C70.7101 54.551 66.876 63.1897 65.2922 76.728ZM193.588 112.987L191.618 109.159C183.429 93.1903 172.463 80.6744 159.898 72.9643L158.93 72.3716L159.432 71.3838C163.286 63.8021 167.15 58.206 171.245 52.284C173.751 48.6339 176.372 44.8752 179.103 40.4299L180.261 38.553L181.264 40.504C192.586 62.029 196.38 82.4328 193.954 108.734L193.588 112.987ZM162.193 71.4579C173.721 78.8074 183.9 90.0687 191.829 104.244C193.383 81.2424 189.789 62.755 180.076 43.5614C177.74 47.246 175.5 50.4762 173.325 53.6373C169.466 59.2285 165.807 64.5183 162.193 71.4579Z" fill="#303744"/>
</svg>
