<svg width="400" height="400" viewBox="0 0 400 400" fill="none" xmlns="http://www.w3.org/2000/svg">
<rect width="400" height="400" fill="#600DFF"/>
<rect width="292" height="292" transform="translate(54 54)" fill="#600DFF"/>
<path fill-rule="evenodd" clip-rule="evenodd" d="M285.73 124.877C285.73 130.444 285 135.517 283.647 140.124C340.961 173.804 311.459 283.386 302.823 311.3C302.585 312.069 301.26 311.773 301.285 310.967C301.566 301.699 300.123 288.696 293.762 276.182C293.953 277.83 294.052 279.508 294.052 281.208C294.052 305.03 274.747 324.342 250.933 324.342C227.119 324.342 207.815 305.03 207.815 281.208C207.815 276.787 208.479 272.522 209.715 268.506C209.37 268.416 209.007 268.323 208.63 268.23C206.132 267.617 203.508 267.133 201.76 267.133C200.02 267.133 197.5 267.606 195.125 268.204C194.687 268.314 194.271 268.425 193.883 268.531C195.114 272.541 195.777 276.8 195.777 281.213C195.777 305.036 176.472 324.347 152.658 324.347C130.64 324.347 112.475 307.837 109.863 286.517C105.421 304.224 105.316 323.422 106.083 345.332C106.107 346.017 105.225 346.317 104.883 345.723C85.697 312.408 68.0208 243.412 80.8025 192.538C92.24 147.014 124.28 125.076 144.401 117.553C148.065 81.85 178.221 54 214.879 54C254.009 54 285.73 85.7327 285.73 124.877ZM134.19 242.225C139.788 239.567 146.05 238.079 152.658 238.079C168.112 238.079 181.666 246.211 189.279 258.431C190.097 258.185 191.208 257.867 192.474 257.548C195.001 256.911 198.607 256.148 201.76 256.148C204.905 256.148 208.609 256.918 211.217 257.558C212.427 257.856 213.506 258.152 214.335 258.39C221.952 246.19 235.495 238.074 250.933 238.074C252.617 238.074 254.279 238.171 255.913 238.358C241.07 220.782 235.282 196.245 233.188 180.814C183.608 202.278 152.959 221.921 134.19 242.225ZM280.746 281.208C280.746 297.686 267.394 311.036 250.933 311.036C234.472 311.036 221.12 297.686 221.12 281.208C221.12 264.73 234.472 251.38 250.933 251.38C267.394 251.38 280.746 264.73 280.746 281.208ZM182.471 281.213C182.471 297.692 169.119 311.042 152.658 311.042C136.198 311.042 122.846 297.692 122.846 281.213C122.846 264.735 136.198 251.385 152.658 251.385C169.119 251.385 182.471 264.735 182.471 281.213Z" fill="white"/>
</svg>
