<?xml version="1.0" encoding="UTF-8"?>
<svg width="1713px" height="1713px" viewBox="0 0 1713 1713" version="1.1" xmlns="http://www.w3.org/2000/svg" xmlns:xlink="http://www.w3.org/1999/xlink">
    <!-- Generator: Sketch 52.2 (67145) - http://www.bohemiancoding.com/sketch -->
    <title>logo</title>
    <desc>Created with Sketch.</desc>
    <g id="Page-1" stroke="none" stroke-width="1" fill="none" fill-rule="evenodd">
        <g id="Artboard" transform="translate(-4270.000000, -1240.000000)" fill="#594BF6">
            <g id="logo" transform="translate(4270.000000, 1240.000000)">
                <path d="M780.071677,-2.10679375e-14 L932.928323,2.10679375e-14 C1142.03548,-1.73444248e-14 1264.17236,30.8822995 1372.60518,88.8728022 C1481.03799,146.863305 1566.1367,231.96201 1624.1272,340.394823 C1682.1177,448.827635 1713,570.964515 1713,780.071677 L1713,932.928323 C1713,1142.03548 1682.1177,1264.17236 1624.1272,1372.60518 C1566.1367,1481.03799 1481.03799,1566.1367 1372.60518,1624.1272 C1264.17236,1682.1177 1142.03548,1713 932.928323,1713 L780.071677,1713 C570.964515,1713 448.827635,1682.1177 340.394823,1624.1272 C231.96201,1566.1367 146.863305,1481.03799 88.8728022,1372.60518 C30.8822995,1264.17236 1.15629499e-14,1142.03548 -1.40452917e-14,932.928323 L1.40452917e-14,780.071677 C-1.15629499e-14,570.964515 30.8822995,448.827635 88.8728022,340.394823 C146.863305,231.96201 231.96201,146.863305 340.394823,88.8728022 C448.827635,30.8822995 570.964515,1.73444248e-14 780.071677,-2.10679375e-14 Z M1415.79699,410.000326 L1100.90993,808.607038 L866.315498,562.619769 L631.721068,808.607038 L316.839956,410.007853 C302.340057,412.747316 292.324918,416.851135 282.268492,422.229371 C262.429664,432.839292 246.860036,448.40892 236.250115,468.247749 C230.612005,478.790097 226.374446,489.287072 223.641054,504.953028 L539.723252,905.072633 L615.292886,1000.73412 L866.315498,737.52085 L1117.33811,1000.73412 L1192.90774,905.072633 L1509.02746,504.905523 C1506.2938,489.265847 1502.05911,478.779438 1496.4267,468.247749 C1485.81678,448.40892 1470.24715,432.839292 1450.40832,422.229371 C1440.34268,416.846207 1430.3184,412.739796 1415.79699,410.000326 Z M1505.91213,1233.27776 L1263.98438,979.601037 L1188.42401,1075.27223 L1416.42485,1314.34569 C1430.60865,1311.60689 1440.4884,1307.54171 1450.40832,1302.23648 C1470.24715,1291.62656 1485.81678,1276.05693 1496.4267,1256.2181 C1500.2398,1249.08823 1503.41229,1241.97912 1505.91213,1233.27776 Z M316.213286,1314.33821 L544.206986,1075.27223 L468.646613,979.601037 L226.754079,1233.24083 C229.255552,1241.95901 232.431626,1249.07815 236.250115,1256.2181 C246.860036,1276.05693 262.429664,1291.62656 282.268492,1302.23648 C292.179394,1307.53689 302.050195,1311.5995 316.213286,1314.33821 Z" id="Combined-Shape"></path>
            </g>
        </g>
    </g>
</svg>