<svg id="Groupe_992" data-name="Groupe 992" xmlns="http://www.w3.org/2000/svg" width="293.477" height="293.477" viewBox="0 0 293.477 293.477">
  <path id="Tracé_406" data-name="Tracé 406" d="M26.087,0h241.3a26.087,26.087,0,0,1,26.087,26.087v241.3A26.276,26.276,0,0,1,280.91,289.7a25.538,25.538,0,0,1-13.52,3.772H26.087A26.087,26.087,0,0,1,0,267.39V26.087A26.087,26.087,0,0,1,26.087,0Z" fill="#0a66de"/>
  <g id="Groupe_990" data-name="Groupe 990" transform="translate(48.913 48.914)">
    <g id="Tracé_407" data-name="Tracé 407" fill="none">
      <path d="M97.826,0A97.826,97.826,0,1,1,0,97.826,97.826,97.826,0,0,1,97.826,0Z" stroke="none"/>
      <path d="M 97.82552337646484 25.99996948242188 C 58.22077941894531 25.99996948242188 25.99996948242188 58.22077941894531 25.99996948242188 97.82552337646484 C 25.99996948242188 137.4302215576172 58.22077941894531 169.6510314941406 97.82552337646484 169.6510314941406 C 137.4302215576172 169.6510314941406 169.6510314941406 137.4302215576172 169.6510314941406 97.82552337646484 C 169.6510314941406 58.22077941894531 137.4302215576172 25.99996948242188 97.82552337646484 25.99996948242188 M 97.82552337646484 -3.0517578125e-05 C 151.8530731201172 -3.0517578125e-05 195.6510162353516 43.7979736328125 195.6510162353516 97.82552337646484 C 195.6510162353516 151.8530731201172 151.8530731201172 195.6510162353516 97.82552337646484 195.6510162353516 C 43.7979736328125 195.6510162353516 -3.0517578125e-05 151.8530731201172 -3.0517578125e-05 97.82552337646484 C -3.0517578125e-05 43.7979736328125 43.7979736328125 -3.0517578125e-05 97.82552337646484 -3.0517578125e-05 Z" stroke="none" fill="#fff"/>
    </g>
    <g id="Groupe_982" data-name="Groupe 982" transform="translate(70.755 97.825)">
      <circle id="Ellipse_32" data-name="Ellipse 32" cx="27.071" cy="27.071" r="27.071" transform="translate(0 0)" fill="#fff"/>
    </g>
  </g>
</svg>
