<svg width="141" height="141" viewBox="0 0 141 141" fill="none" xmlns="http://www.w3.org/2000/svg">
<rect width="141" height="141" fill="#9933CC"/>
<path d="M84.2502 84.7937C84.8428 92.3741 82.7402 98.9256 77.3744 104.291C70.375 111.291 52.3524 115.004 32.9032 113.764C30.395 113.604 28.3962 111.605 28.2363 109.097C26.996 89.6475 30.709 71.6249 37.7084 64.6255C43.0743 59.2597 49.6258 57.1571 57.2062 57.7497C60.0166 57.9694 62.737 58.4834 65.8485 59.3734C64.4531 55.3699 63.707 52.4137 63.3293 49.2746C62.5287 42.6188 64.0635 36.9664 68.5298 32.5002C73.8636 27.1663 82.8991 26.3799 88.5298 31.1861C94.7643 27.0067 103.289 27.6813 108.804 33.1963C114.319 38.7113 114.993 47.2356 110.814 53.4702C115.62 59.1009 114.834 68.1362 109.5 73.4702C105.034 77.9364 99.3811 79.4712 92.7253 78.6706C89.5862 78.2929 86.63 77.5468 82.6265 76.1514C80.6988 75.4795 78.5284 74.6572 75.9778 73.653C75.6869 73.5385 73.6054 72.7165 72.9976 72.4778C72.1359 72.1394 71.3006 71.818 70.4906 71.5139C65.8966 69.7814 62.105 68.6091 58.8839 68.0277C53.8621 67.1141 50.2502 67.6379 47.1384 69.7214L47.1408 69.7238C46.321 70.2705 45.5367 70.9249 44.7722 71.6893C40.716 75.7455 37.7111 88.9338 38.0176 103.982C53.0661 104.289 66.2544 101.284 70.3106 97.2277C74.9337 92.6045 75.5322 87.2572 72.622 77.6986C72.8651 77.7945 74.0498 78.262 74.148 78.3006C78.1563 79.8787 81.2466 81.011 83.9041 81.8312C84.0585 82.8215 84.1727 83.8021 84.2502 84.7937ZM77.6421 62.3626C77.6996 62.5084 77.9472 63.1356 78.2067 63.7933C78.8643 64.0528 79.4915 64.3003 79.6373 64.3578C93.1137 69.6635 98.5276 70.3148 102.436 66.4064C104.293 64.549 104.503 61.2313 103.069 59.7966C102.604 59.3318 102.058 58.9923 101.459 58.7854C97.4308 57.3946 96.8826 51.9222 100.555 49.7599C100.989 49.504 101.394 49.1916 101.761 48.8241C104.118 46.4672 104.113 42.633 101.74 40.2601C99.3669 37.8872 95.5327 37.882 93.1758 40.2389C92.8083 40.6063 92.4959 41.0104 92.24 41.445C90.0777 45.1173 84.6053 44.5691 83.2144 40.5409C83.0076 39.9419 82.6681 39.3961 82.2033 38.9313C80.7687 37.4967 77.4509 37.7067 75.5936 39.5639C71.6852 43.4724 72.3364 48.8862 77.6421 62.3626Z" fill="white"/>
<path d="M44.7658 40.5774C44.9525 39.8075 46.0475 39.8075 46.2342 40.5774L46.7479 42.6959C46.8146 42.9708 47.0292 43.1854 47.3041 43.2521L49.4226 43.7658C50.1925 43.9525 50.1925 45.0475 49.4226 45.2342L47.3041 45.7479C47.0292 45.8146 46.8146 46.0292 46.7479 46.3041L46.2342 48.4226C46.0475 49.1925 44.9525 49.1925 44.7658 48.4226L44.2521 46.3041C44.1854 46.0292 43.9708 45.8146 43.6959 45.7479L41.5774 45.2342C40.8075 45.0475 40.8075 43.9525 41.5774 43.7658L43.6959 43.2521C43.9708 43.1854 44.1854 42.9708 44.2521 42.6959L44.7658 40.5774Z" fill="white"/>
<path fill-rule="evenodd" clip-rule="evenodd" d="M45.5 41.3966L45.1331 42.9096C44.9865 43.5143 44.5143 43.9865 43.9096 44.1331L42.3966 44.5L43.9096 44.8669C44.5143 45.0135 44.9865 45.4857 45.1331 46.0904L45.5 47.6034L45.8669 46.0904C46.0135 45.4857 46.4857 45.0135 47.0904 44.8669L48.6034 44.5L47.0904 44.1331C46.4857 43.9865 46.0135 43.5143 45.8669 42.9096L45.5 41.3966ZM46.2342 40.5774C46.0475 39.8075 44.9525 39.8075 44.7658 40.5774L44.2521 42.6959C44.1854 42.9708 43.9708 43.1854 43.6959 43.2521L41.5774 43.7658C40.8075 43.9525 40.8075 45.0475 41.5774 45.2342L43.6959 45.7479C43.9708 45.8146 44.1854 46.0292 44.2521 46.3041L44.7658 48.4226C44.9525 49.1925 46.0475 49.1925 46.2342 48.4226L46.7479 46.3041C46.8146 46.0292 47.0292 45.8146 47.3041 45.7479L49.4226 45.2342C50.1925 45.0475 50.1925 43.9525 49.4226 43.7658L47.3041 43.2521C47.0292 43.1854 46.8146 42.9708 46.7479 42.6959L46.2342 40.5774Z" fill="white"/>
<path d="M93.8579 100.898C94.1483 99.7006 95.8517 99.7006 96.1421 100.898L96.9412 104.194C97.0449 104.621 97.3787 104.955 97.8063 105.059L101.102 105.858C102.299 106.148 102.299 107.852 101.102 108.142L97.8063 108.941C97.3787 109.045 97.0449 109.379 96.9412 109.806L96.1421 113.102C95.8517 114.299 94.1483 114.299 93.8579 113.102L93.0588 109.806C92.9551 109.379 92.6213 109.045 92.1937 108.941L88.8982 108.142C87.7006 107.852 87.7006 106.148 88.8982 105.858L92.1937 105.059C92.6213 104.955 92.9551 104.621 93.0588 104.194L93.8579 100.898Z" fill="white"/>
<path fill-rule="evenodd" clip-rule="evenodd" d="M95 102.173L94.4293 104.526C94.2012 105.467 93.4667 106.201 92.526 106.429L90.1726 107L92.526 107.571C93.4667 107.799 94.2012 108.533 94.4293 109.474L95 111.827L95.5707 109.474C95.7988 108.533 96.5333 107.799 97.474 107.571L99.8274 107L97.474 106.429C96.5333 106.201 95.7988 105.467 95.5707 104.526L95 102.173ZM96.1421 100.898C95.8517 99.7006 94.1483 99.7006 93.8579 100.898L93.0588 104.194C92.9551 104.621 92.6213 104.955 92.1937 105.059L88.8982 105.858C87.7006 106.148 87.7006 107.852 88.8982 108.142L92.1937 108.941C92.6213 109.045 92.9551 109.379 93.0588 109.806L93.8579 113.102C94.1483 114.299 95.8517 114.299 96.1421 113.102L96.9412 109.806C97.0449 109.379 97.3787 109.045 97.8063 108.941L101.102 108.142C102.299 107.852 102.299 106.148 101.102 105.858L97.8063 105.059C97.3787 104.955 97.0449 104.621 96.9412 104.194L96.1421 100.898Z" fill="white"/>
<path d="M51.0211 28.7699C51.27 27.7434 52.73 27.7434 52.9789 28.7699L53.6639 31.5946C53.7527 31.9611 54.0389 32.2473 54.4054 32.3361L57.2301 33.0211C58.2566 33.27 58.2566 34.73 57.2301 34.9789L54.4054 35.6639C54.0389 35.7527 53.7527 36.0389 53.6639 36.4054L52.9789 39.2301C52.73 40.2566 51.27 40.2566 51.0211 39.2301L50.3361 36.4054C50.2473 36.0389 49.9611 35.7527 49.5946 35.6639L46.7699 34.9789C45.7434 34.73 45.7434 33.27 46.7699 33.0211L49.5946 32.3361C49.9611 32.2473 50.2473 31.9611 50.3361 31.5946L51.0211 28.7699Z" fill="white"/>
<path d="M93 94C91.8954 94 91 93.1046 91 92C91 90.8954 91.8954 90 93 90C94.1046 90 95 90.8954 95 92C95 93.1046 94.1046 94 93 94Z" fill="white"/>
<path d="M81 114C79.8954 114 79 113.105 79 112C79 110.895 79.8954 110 81 110C82.1046 110 83 110.895 83 112C83 113.105 82.1046 114 81 114Z" fill="white"/>
</svg>
