<?xml version="1.0" encoding="utf-8"?>
<!-- Generator: Adobe Illustrator 16.0.0, SVG Export Plug-In . SVG Version: 6.00 Build 0)  -->
<!DOCTYPE svg PUBLIC "-//W3C//DTD SVG 1.1//EN" "http://www.w3.org/Graphics/SVG/1.1/DTD/svg11.dtd">
<svg version="1.1" id="Layer_1" xmlns="http://www.w3.org/2000/svg" xmlns:xlink="http://www.w3.org/1999/xlink" x="0px" y="0px"
	 width="469px" height="469px" viewBox="0 0 469 469" enable-background="new 0 0 469 469" xml:space="preserve">
<circle fill="#0D9CD8" cx="234.5" cy="234.5" r="209.849"/>
<path display="none" fill-rule="evenodd" clip-rule="evenodd" fill="#020202" d="M251,0.5c129.511,0,234.5,104.989,234.5,234.5
	S380.511,469.5,251,469.5S16.5,364.511,16.5,235S121.489,0.5,251,0.5z"/>
<path display="none" fill="none" d="M240.641,193.154c3.416-0.973,6.649-0.423,9.705,1.648c3.05,2.077,4.944,5.07,5.676,8.972
	c3.662,16.359,6.529,32.902,8.606,49.622c2.071,16.726,3.536,33.508,4.395,50.354c0.853,16.846,0.916,33.571,0.183,50.171
	c-0.732,16.605-2.077,32.959-4.028,49.072c-0.492,3.416-1.957,6.283-4.395,8.605c-2.443,2.317-5.373,3.479-8.789,3.479
	c-0.246,0-0.492,0-0.732,0c-0.246,0-0.612,0-1.099,0c-3.422-0.492-6.226-2.323-8.423-5.493c-2.197-3.176-3.056-6.718-2.563-10.62
	c1.951-15.135,3.233-30.636,3.845-46.509c0.606-15.867,0.549-31.734-0.183-47.607c-0.732-15.867-2.077-31.734-4.028-47.607
	c-1.957-15.867-4.641-31.614-8.057-47.241c-0.732-3.662-0.183-7.141,1.648-10.437S236.979,194.133,240.641,193.154L240.641,193.154z
	 M210.245,272.256c3.416-0.24,6.592,0.858,9.521,3.296c2.93,2.443,4.515,5.619,4.761,9.521c1.705,19.535,2.317,38.944,1.831,58.228
	c-0.492,19.289-1.957,38.212-4.395,56.763c-0.492,3.416-2.014,6.226-4.578,8.423s-5.436,3.296-8.606,3.296c-0.246,0-0.492,0-0.732,0
	c-0.246,0-0.612,0-1.099,0c-3.422-0.492-6.226-2.323-8.423-5.493c-2.197-3.176-3.056-6.718-2.563-10.62
	c2.438-17.332,3.845-35.093,4.211-53.283c0.366-18.185-0.183-36.438-1.648-54.749c-0.246-3.902,0.732-7.324,2.93-10.254
	S206.583,272.748,210.245,272.256L210.245,272.256z M230.753,147.378c15.135-3.662,29.297-1.036,42.48,7.874
	c13.184,8.915,21.606,21.549,25.269,37.903c3.662,16.846,6.649,33.817,8.972,50.903c2.317,17.092,3.965,34.12,4.944,51.086
	c0.973,16.972,1.219,33.875,0.732,50.721c-0.492,16.846-1.591,33.571-3.296,50.171c-0.492,3.416-1.957,6.346-4.395,8.789
	c-2.443,2.438-5.253,3.662-8.423,3.662c-0.246,0-0.492,0-0.732,0c-0.246,0-0.492-0.126-0.732-0.366
	c-3.662-0.246-6.592-1.894-8.789-4.943c-2.197-3.056-3.176-6.529-2.93-10.438c1.705-15.867,2.747-31.797,3.113-47.791
	c0.366-15.987,0.12-32.101-0.732-48.339c-0.858-16.233-2.38-32.41-4.578-48.523s-5.127-32.347-8.789-48.706
	c-1.711-8.789-6.168-15.564-13.367-20.325c-7.204-4.761-14.832-6.163-22.888-4.211c-3.908,0.979-7.507,2.747-10.803,5.31
	s-6.042,5.676-8.24,9.338s-3.605,7.633-4.211,11.902c-0.612,4.274-0.429,8.606,0.549,13c0.732,3.908,1.522,7.937,2.38,12.085
	c0.853,4.154,1.648,8.183,2.38,12.085c0.486,3.908-0.246,7.45-2.197,10.62c-1.957,3.176-4.761,5.127-8.423,5.859
	c-3.422,0.732-6.655,0-9.705-2.197c-3.056-2.197-4.824-5.247-5.31-9.155c-0.732-3.902-1.465-7.748-2.197-11.536
	c-0.732-3.782-1.465-7.627-2.197-11.536c-1.711-7.811-1.957-15.684-0.732-23.621c1.219-7.931,3.782-15.438,7.69-22.522
	c3.902-6.832,8.909-12.571,15.015-17.212C216.711,152.631,223.429,149.335,230.753,147.378L230.753,147.378z M185.343,157.266
	c-0.732,1.225-1.465,2.443-2.197,3.662c-0.732,1.225-1.465,2.443-2.197,3.662c-5.373,9.035-8.852,18.74-10.437,29.114
	c-1.591,10.38-1.282,20.817,0.916,31.311c2.93,13.676,5.31,27.466,7.141,41.382s3.113,27.775,3.845,41.564
	c0.732,13.796,0.853,27.409,0.366,40.833c-0.492,13.43-1.591,26.733-3.296,39.917c-0.492,3.422-1.957,6.288-4.395,8.606
	c-2.443,2.317-5.253,3.479-8.423,3.479c-0.246,0-0.549,0-0.916,0s-0.675,0-0.916,0c-3.662-0.732-6.535-2.627-8.606-5.677
	c-2.077-3.05-2.873-6.528-2.38-10.437c1.465-12.205,2.438-24.593,2.93-37.171c0.486-12.571,0.366-25.325-0.366-38.269
	c-0.732-12.938-1.957-25.938-3.662-39.001c-1.711-13.058-3.908-26.059-6.592-39.002c-2.93-13.916-3.359-27.889-1.282-41.931
	c2.071-14.036,6.649-27.157,13.733-39.368c0.973-1.705,2.014-3.416,3.113-5.127c1.099-1.705,2.254-3.296,3.479-4.761
	c2.197-3.17,5.064-4.944,8.606-5.31c3.536-0.366,6.775,0.675,9.705,3.113c2.684,2.197,4.269,5.253,4.761,9.155
	C188.759,150.92,187.78,154.336,185.343,157.266L185.343,157.266z M342.447,286.172c3.416,0,6.466,1.281,9.155,3.846
	c2.684,2.563,4.148,5.802,4.395,9.704c0.486,13.43,0.669,26.979,0.549,40.649c-0.126,13.676-0.675,27.1-1.648,40.283
	c-0.246,3.662-1.648,6.775-4.211,9.339s-5.556,3.845-8.972,3.845c-0.492,0-0.858,0-1.099,0c-3.422-0.486-6.289-2.197-8.606-5.127
	c-2.323-2.93-3.359-6.346-3.113-10.254c0.973-12.691,1.522-25.509,1.648-38.452c0.12-12.938-0.063-25.875-0.549-38.818
	c-0.246-3.902,0.853-7.324,3.296-10.254C335.729,288.003,338.785,286.418,342.447,286.172L342.447,286.172L342.447,286.172z
	 M339.151,266.763c-3.176,0-6.042-1.156-8.606-3.479c-2.563-2.317-3.971-5.185-4.211-8.606c-1.225-10.986-2.747-21.973-4.578-32.959
	s-3.971-21.973-6.409-32.959c-3.908-17.818-12.697-32.53-26.367-44.128c-13.676-11.593-29.057-17.395-46.143-17.395
	c-2.689,0-5.373,0.183-8.057,0.549c-2.689,0.366-5.373,0.795-8.057,1.282c-2.197,0.732-4.337,1.465-6.409,2.197
	c-2.077,0.732-4.211,1.591-6.409,2.563c-3.176,1.465-6.472,1.465-9.888,0c-3.422-1.465-5.739-3.902-6.958-7.324
	c-1.465-3.662-1.528-7.261-0.183-10.803c1.339-3.536,3.599-6.163,6.775-7.874c2.684-1.219,5.493-2.317,8.423-3.296
	c2.93-0.973,5.859-1.951,8.789-2.93c3.662-0.732,7.324-1.339,10.986-1.831c3.662-0.486,7.324-0.732,10.986-0.732
	c11.473,0,22.579,2.077,33.325,6.226c10.74,4.154,20.445,9.951,29.114,17.395c8.663,7.45,16.113,16.239,22.339,26.367
	c6.226,10.134,10.557,21.303,13,33.508c2.438,11.232,4.635,22.585,6.592,34.058c1.951,11.479,3.536,22.951,4.761,34.424
	c0.486,3.908-0.366,7.387-2.563,10.437c-2.197,3.056-5.127,4.824-8.789,5.311c-0.246,0-0.492,0-0.732,0
	C339.638,266.763,339.392,266.763,339.151,266.763L339.151,266.763z M383.097,171.914c3.17,14.648,5.917,29.423,8.24,44.312
	c2.317,14.895,4.148,29.789,5.493,44.678c1.339,14.895,2.254,29.789,2.747,44.678c0.486,14.895,0.606,29.663,0.366,44.312
	c-0.246,3.908-1.591,7.324-4.028,10.254c-2.443,2.93-5.493,4.395-9.155,4.395h-0.366c-3.662,0-6.718-1.585-9.155-4.761
	c-2.443-3.17-3.542-6.712-3.296-10.62c0.24-14.156,0.12-28.318-0.366-42.48c-0.492-14.156-1.408-28.382-2.747-42.664
	c-1.345-14.281-3.113-28.563-5.31-42.846c-2.197-14.282-4.761-28.501-7.69-42.664c-2.443-11.227-6.289-21.973-11.536-32.227
	c-5.253-10.254-11.782-19.529-19.592-27.832c-2.443-2.684-3.662-5.979-3.662-9.888c0-3.902,1.219-7.198,3.662-9.888
	c2.684-2.93,5.796-4.395,9.338-4.395c3.536,0,6.529,1.465,8.972,4.395c9.521,10.014,17.515,21.24,23.987,33.691
	C375.463,144.814,380.167,157.998,383.097,171.914L383.097,171.914z M122.721,286.904c-3.176,0-6.042-1.099-8.606-3.296
	s-4.091-5.127-4.578-8.789c-0.732-5.367-1.591-10.804-2.563-16.297c-0.979-5.492-1.957-11.043-2.93-16.662
	c-2.197-10.008-3.479-20.079-3.845-30.212c-0.366-10.128,0.24-20.142,1.831-30.029c1.585-9.888,4.028-19.592,7.324-29.114
	s7.507-18.677,12.634-27.466c10.008-17.578,22.705-32.284,38.086-44.128c15.381-11.839,32.347-20.079,50.903-24.719
	c16.354-4.148,32.776-5.064,49.255-2.747c16.479,2.323,32.164,7.507,47.058,15.564c3.17,1.711,5.367,4.395,6.592,8.057
	c1.219,3.662,0.973,7.204-0.732,10.62c-1.711,3.422-4.274,5.739-7.69,6.958c-3.422,1.225-6.718,0.979-9.888-0.732
	c-12.211-6.592-25.085-10.803-38.635-12.634s-26.917-1.036-40.1,2.38c-15.141,3.662-28.994,10.38-41.565,20.142
	c-12.577,9.768-23.014,21.853-31.311,36.255c-8.303,14.162-13.733,29.48-16.296,45.959s-2.014,33.022,1.648,49.622
	c1.219,5.859,2.38,11.719,3.479,17.578s2.014,11.719,2.747,17.578c0.486,3.908-0.366,7.387-2.563,10.437
	c-2.197,3.057-5.007,4.944-8.423,5.677c-0.492,0-0.858,0-1.099,0C123.207,286.904,122.961,286.904,122.721,286.904L122.721,286.904z
	 M126.383,308.511c3.416,0,6.409,0.979,8.972,2.93c2.563,1.957,3.965,4.761,4.211,8.423c0.24,8.549,0.24,16.909,0,25.085
	c-0.246,8.183-0.732,16.297-1.465,24.354c-0.492,3.662-1.957,6.534-4.395,8.605c-2.443,2.078-5.373,3.113-8.789,3.113
	c-0.492,0-0.858,0-1.099,0c-3.662-0.486-6.592-2.197-8.789-5.127s-3.176-6.346-2.93-10.254c0.732-7.564,1.219-14.952,1.465-22.155
	c0.24-7.199,0.24-14.706,0-22.522c-0.246-3.902,0.853-6.958,3.296-9.155c2.438-2.197,5.493-3.296,9.155-3.296H126.383
	L126.383,308.511L126.383,308.511z"/>
<g>
	<g>
		<path fill="#FFFFFF" d="M234.5,0C104.989,0,0,104.989,0,234.5S104.989,469,234.5,469S469,364.011,469,234.5S364.011,0,234.5,0z
			 M90.474,258.022c-0.979-5.492-1.957-11.043-2.93-16.662c-2.197-10.008-3.479-20.079-3.845-30.212
			c-0.366-10.128,0.24-20.142,1.831-30.029c1.585-9.888,4.028-19.592,7.324-29.114s7.507-18.677,12.634-27.466
			c10.008-17.578,22.705-32.284,38.086-44.128c15.381-11.839,32.347-20.079,50.903-24.719c16.354-4.148,32.776-5.064,49.255-2.747
			c16.479,2.323,32.164,7.507,47.058,15.564c3.17,1.711,5.367,4.395,6.592,8.057c1.219,3.662,0.973,7.204-0.732,10.62
			c-1.711,3.422-4.274,5.739-7.69,6.958c-3.422,1.225-6.718,0.979-9.888-0.732c-12.211-6.592-25.085-10.803-38.635-12.634
			s-26.917-1.036-40.1,2.38c-15.141,3.662-28.994,10.38-41.565,20.142c-12.577,9.768-23.014,21.853-31.311,36.255
			c-8.303,14.162-13.733,29.48-16.296,45.959s-2.014,33.022,1.648,49.622c1.219,5.859,2.38,11.719,3.479,17.578
			s2.014,11.719,2.747,17.578c0.486,3.908-0.366,7.387-2.563,10.437c-2.197,3.056-5.007,4.944-8.423,5.677h-1.831
			c-3.176,0-6.042-1.099-8.606-3.296s-4.091-5.127-4.578-8.789C92.305,268.952,91.446,263.516,90.474,258.022z M123.066,344.448
			c-0.246,8.183-0.732,16.297-1.465,24.354c-0.492,3.662-1.957,6.534-4.395,8.605c-2.443,2.077-5.373,3.113-8.789,3.113h-1.099
			c-3.662-0.486-6.592-2.197-8.789-5.127s-3.176-6.346-2.93-10.254c0.732-7.564,1.219-14.952,1.465-22.155
			c0.24-7.199,0.24-14.706,0-22.522c-0.246-3.902,0.853-6.958,3.296-9.155c2.438-2.197,5.493-3.296,9.155-3.296h0.366
			c3.416,0,6.409,0.979,8.972,2.93c2.563,1.957,3.965,4.761,4.211,8.423C123.307,327.912,123.307,336.271,123.066,344.448z
			 M166.646,160.428c-0.732,1.225-1.465,2.443-2.197,3.662c-5.373,9.035-8.852,18.74-10.437,29.114
			c-1.591,10.38-1.282,20.817,0.916,31.311c2.93,13.676,5.31,27.466,7.141,41.382s3.113,27.774,3.845,41.564
			c0.732,13.796,0.853,27.409,0.366,40.833c-0.492,13.43-1.591,26.733-3.296,39.917c-0.492,3.422-1.957,6.288-4.395,8.606
			c-2.443,2.317-5.253,3.479-8.423,3.479h-1.831c-3.662-0.732-6.535-2.626-8.606-5.677c-2.077-3.05-2.873-6.528-2.38-10.437
			c1.465-12.205,2.438-24.594,2.93-37.171c0.486-12.571,0.366-25.325-0.366-38.269c-0.732-12.938-1.957-25.938-3.662-39.001
			c-1.711-13.059-3.908-26.059-6.592-39.002c-2.93-13.916-3.359-27.889-1.282-41.931c2.071-14.036,6.649-27.157,13.733-39.368
			c0.973-1.705,2.014-3.416,3.113-5.127c1.099-1.705,2.254-3.296,3.479-4.761c2.197-3.17,5.064-4.944,8.606-5.31
			c3.536-0.366,6.775,0.675,9.705,3.113c2.684,2.197,4.269,5.253,4.761,9.155c0.486,3.908-0.492,7.324-2.93,10.254
			C168.11,157.99,167.378,159.209,166.646,160.428z M209.858,342.801c-0.492,19.289-1.957,38.212-4.395,56.763
			c-0.492,3.416-2.014,6.226-4.578,8.423s-5.436,3.296-8.606,3.296h-1.831c-3.422-0.492-6.226-2.323-8.423-5.493
			c-2.197-3.176-3.056-6.718-2.563-10.62c2.438-17.332,3.845-35.094,4.211-53.283c0.366-18.186-0.183-36.438-1.648-54.749
			c-0.246-3.902,0.732-7.324,2.93-10.254s5.127-4.635,8.789-5.127c3.416-0.24,6.592,0.858,9.521,3.296
			c2.93,2.443,4.515,5.619,4.761,9.521C209.732,304.108,210.345,323.518,209.858,342.801z M252.705,353.421
			c-0.732,16.605-2.077,32.959-4.028,49.072c-0.492,3.416-1.957,6.283-4.395,8.605c-2.443,2.317-5.373,3.479-8.789,3.479h-1.831
			c-3.422-0.492-6.226-2.323-8.423-5.493c-2.197-3.176-3.056-6.718-2.563-10.62c1.951-15.135,3.233-30.636,3.845-46.509
			c0.606-15.867,0.549-31.734-0.183-47.607c-0.732-15.867-2.077-31.734-4.028-47.607c-1.957-15.867-4.641-31.614-8.057-47.241
			c-0.732-3.662-0.183-7.141,1.648-10.437s4.578-5.43,8.24-6.409c3.416-0.973,6.649-0.423,9.705,1.648
			c3.05,2.077,4.944,5.07,5.676,8.972c3.662,16.359,6.529,32.901,8.606,49.622c2.071,16.725,3.536,33.508,4.395,50.354
			C253.375,320.096,253.438,336.821,252.705,353.421z M296.65,345.364c-0.492,16.846-1.591,33.571-3.296,50.171
			c-0.492,3.416-1.957,6.346-4.395,8.789c-2.443,2.438-5.253,3.662-8.423,3.662h-0.732c-0.246,0-0.492-0.126-0.732-0.366
			c-3.662-0.246-6.592-1.894-8.789-4.943c-2.197-3.056-3.176-6.529-2.93-10.438c1.705-15.867,2.747-31.798,3.113-47.791
			c0.366-15.987,0.12-32.101-0.732-48.339c-0.858-16.234-2.38-32.41-4.578-48.523s-5.127-32.347-8.789-48.706
			c-1.711-8.789-6.168-15.564-13.367-20.325c-7.204-4.761-14.832-6.163-22.888-4.211c-3.908,0.979-7.507,2.747-10.803,5.31
			s-6.042,5.676-8.24,9.338s-3.605,7.633-4.211,11.902c-0.612,4.274-0.429,8.606,0.549,13c0.732,3.908,1.522,7.937,2.38,12.085
			c0.853,4.154,1.648,8.183,2.38,12.085c0.486,3.908-0.246,7.45-2.197,10.62c-1.957,3.176-4.761,5.127-8.423,5.859
			c-3.422,0.732-6.655,0-9.705-2.197c-3.056-2.197-4.824-5.247-5.31-9.155c-0.732-3.902-1.465-7.748-2.197-11.536
			c-0.732-3.782-1.465-7.627-2.197-11.536c-1.711-7.811-1.957-15.684-0.732-23.621c1.219-7.931,3.782-15.438,7.69-22.522
			c3.902-6.832,8.909-12.571,15.015-17.212c6.1-4.635,12.817-7.931,20.142-9.888c15.135-3.662,29.297-1.036,42.48,7.874
			c13.184,8.915,21.606,21.549,25.269,37.903c3.662,16.846,6.649,33.817,8.972,50.903c2.317,17.092,3.965,34.12,4.944,51.086
			C296.891,311.615,297.137,328.519,296.65,345.364z M305.256,221.219c-1.831-10.986-3.971-21.973-6.409-32.959
			c-3.908-17.818-12.697-32.53-26.367-44.128c-13.676-11.593-29.057-17.395-46.143-17.395c-2.689,0-5.373,0.183-8.057,0.549
			c-2.689,0.366-5.373,0.795-8.057,1.282c-2.197,0.732-4.337,1.465-6.409,2.197c-2.077,0.732-4.211,1.591-6.409,2.563
			c-3.176,1.465-6.472,1.465-9.888,0c-3.422-1.465-5.739-3.902-6.958-7.324c-1.465-3.662-1.528-7.261-0.183-10.803
			c1.339-3.536,3.599-6.163,6.775-7.874c2.684-1.219,5.493-2.317,8.423-3.296c2.93-0.973,5.859-1.951,8.789-2.93
			c3.662-0.732,7.324-1.339,10.986-1.831c3.662-0.486,7.324-0.732,10.986-0.732c11.473,0,22.579,2.077,33.325,6.226
			c10.74,4.154,20.445,9.951,29.114,17.395c8.663,7.45,16.113,16.239,22.339,26.367c6.226,10.134,10.557,21.303,13,33.508
			c2.438,11.232,4.635,22.585,6.592,34.058c1.951,11.479,3.536,22.951,4.761,34.424c0.486,3.908-0.366,7.387-2.563,10.437
			c-2.197,3.056-5.127,4.824-8.789,5.311h-1.465c-3.176,0-6.042-1.156-8.606-3.479c-2.563-2.317-3.971-5.185-4.211-8.606
			C308.609,243.191,307.087,232.205,305.256,221.219z M340.046,339.871c-0.126,13.676-0.675,27.1-1.648,40.283
			c-0.246,3.662-1.648,6.775-4.211,9.339s-5.556,3.845-8.972,3.845h-1.099c-3.422-0.486-6.289-2.197-8.606-5.127
			c-2.323-2.93-3.359-6.346-3.113-10.254c0.973-12.691,1.522-25.509,1.648-38.452c0.12-12.938-0.063-25.875-0.549-38.818
			c-0.246-3.902,0.853-7.324,3.296-10.254c2.438-2.93,5.493-4.515,9.155-4.761c3.416,0,6.466,1.281,9.155,3.846
			c2.684,2.563,4.148,5.802,4.395,9.704C339.983,312.651,340.167,326.201,340.046,339.871z M383.442,349.393
			c-0.246,3.908-1.591,7.324-4.028,10.254c-2.443,2.93-5.493,4.395-9.155,4.395h-0.366c-3.662,0-6.718-1.585-9.155-4.761
			c-2.443-3.17-3.542-6.712-3.296-10.62c0.24-14.156,0.12-28.318-0.366-42.48c-0.492-14.156-1.408-28.382-2.747-42.664
			c-1.345-14.281-3.113-28.563-5.31-42.846c-2.197-14.282-4.761-28.501-7.69-42.664c-2.443-11.227-6.289-21.973-11.536-32.227
			c-5.253-10.254-11.782-19.529-19.592-27.832c-2.443-2.684-3.662-5.979-3.662-9.888c0-3.902,1.219-7.198,3.662-9.888
			c2.684-2.93,5.796-4.395,9.338-4.395c3.536,0,6.529,1.465,8.972,4.395c9.521,10.014,17.515,21.24,23.987,33.691
			c6.466,12.451,11.169,25.635,14.099,39.551c3.17,14.648,5.917,29.423,8.24,44.312c2.317,14.895,4.148,29.789,5.493,44.678
			c1.339,14.895,2.254,29.789,2.747,44.678C383.562,319.976,383.683,334.744,383.442,349.393z"/>
	</g>
</g>
</svg>
